<?xml version="1.0" encoding="UTF-8"?>
<svg xmlns="http://www.w3.org/2000/svg" xmlns:xlink="http://www.w3.org/1999/xlink" width="375pt" height="374.999991pt" viewBox="0 0 375 374.999991" version="1.2">
<defs>
<clipPath id="clip1">
  <path d="M 112.5 128.53125 L 262.5 128.53125 L 262.5 246.28125 L 112.5 246.28125 Z M 112.5 128.53125 "/>
</clipPath>
</defs>
<g id="surface1">
<g clip-path="url(#clip1)" clip-rule="nonzero">
<path style=" stroke:none;fill-rule:nonzero;fill:rgb(23.529053%,2.349854%,29.019165%);fill-opacity:1;" d="M 253.734375 128.539062 L 155.796875 128.539062 C 150.980469 128.539062 147.058594 132.453125 147.058594 137.261719 L 147.058594 145.78125 L 138.527344 145.78125 C 133.714844 145.78125 129.796875 149.691406 129.796875 154.496094 L 129.796875 163.015625 L 121.265625 163.015625 C 116.449219 163.015625 112.53125 166.929688 112.53125 171.738281 L 112.53125 237.554688 C 112.53125 242.363281 116.449219 246.273438 121.265625 246.273438 L 219.203125 246.273438 C 224.019531 246.273438 227.9375 242.359375 227.9375 237.554688 L 227.9375 229.035156 L 236.472656 229.035156 C 241.285156 229.035156 245.203125 225.125 245.203125 220.316406 L 245.203125 211.796875 L 253.734375 211.796875 C 258.550781 211.796875 262.46875 207.886719 262.46875 203.078125 L 262.46875 137.261719 C 262.46875 132.453125 258.550781 128.539062 253.734375 128.539062 Z M 220.515625 237.554688 C 220.515625 238.277344 219.929688 238.863281 219.203125 238.863281 L 121.265625 238.863281 C 120.539062 238.863281 119.953125 238.277344 119.953125 237.554688 L 119.953125 171.738281 C 119.953125 171.015625 120.539062 170.425781 121.265625 170.425781 L 219.203125 170.425781 C 219.929688 170.425781 220.515625 171.015625 220.515625 171.738281 Z M 237.78125 220.316406 C 237.78125 221.039062 237.191406 221.625 236.472656 221.625 L 227.9375 221.625 L 227.9375 171.738281 C 227.9375 166.929688 224.019531 163.015625 219.203125 163.015625 L 137.21875 163.015625 L 137.21875 154.496094 C 137.21875 153.777344 137.804688 153.191406 138.527344 153.191406 L 236.472656 153.191406 C 237.191406 153.191406 237.78125 153.777344 237.78125 154.496094 Z M 255.046875 203.074219 C 255.046875 203.800781 254.460938 204.386719 253.734375 204.386719 L 245.203125 204.386719 L 245.203125 154.496094 C 245.203125 149.691406 241.285156 145.78125 236.472656 145.78125 L 154.484375 145.78125 L 154.484375 137.261719 C 154.484375 136.539062 155.070312 135.949219 155.796875 135.949219 L 253.734375 135.949219 C 254.460938 135.949219 255.046875 136.539062 255.046875 137.261719 Z M 255.046875 203.074219 "/>
</g>
<path style=" stroke:none;fill-rule:nonzero;fill:rgb(23.529053%,2.349854%,29.019165%);fill-opacity:1;" d="M 151.328125 188.523438 C 151.328125 181.675781 145.75 176.105469 138.894531 176.105469 C 132.035156 176.105469 126.457031 181.675781 126.457031 188.523438 C 126.457031 195.371094 132.035156 200.941406 138.894531 200.941406 C 145.75 200.941406 151.328125 195.371094 151.328125 188.523438 Z M 138.894531 193.53125 C 136.128906 193.53125 133.878906 191.285156 133.878906 188.523438 C 133.878906 185.761719 136.128906 183.515625 138.894531 183.515625 C 141.65625 183.515625 143.90625 185.761719 143.90625 188.523438 C 143.90625 191.285156 141.65625 193.53125 138.894531 193.53125 Z M 138.894531 193.53125 "/>
<path style=" stroke:none;fill-rule:nonzero;fill:rgb(23.529053%,2.349854%,29.019165%);fill-opacity:1;" d="M 193.65625 181.878906 C 193.046875 180.578125 191.738281 179.746094 190.296875 179.746094 C 188.859375 179.746094 187.550781 180.578125 186.9375 181.878906 L 176.109375 204.90625 L 170.816406 193.65625 C 170.203125 192.355469 168.894531 191.527344 167.457031 191.527344 C 166.019531 191.527344 164.710938 192.359375 164.097656 193.65625 L 147.855469 228.195312 C 147.316406 229.339844 147.402344 230.683594 148.085938 231.753906 C 148.765625 232.824219 149.945312 233.472656 151.214844 233.472656 L 212.082031 233.472656 C 213.351562 233.472656 214.53125 232.824219 215.214844 231.753906 C 215.894531 230.683594 215.980469 229.339844 215.441406 228.191406 Z M 157.058594 226.0625 L 167.457031 203.949219 L 172.75 215.199219 C 173.359375 216.5 174.667969 217.328125 176.109375 217.328125 C 177.546875 217.328125 178.855469 216.5 179.46875 215.199219 L 190.296875 192.171875 L 206.238281 226.0625 Z M 157.058594 226.0625 "/>
</g>
</svg>
