<?xml version="1.0" encoding="UTF-8"?>
<svg xmlns="http://www.w3.org/2000/svg" xmlns:xlink="http://www.w3.org/1999/xlink" width="375pt" height="374.999991pt" viewBox="0 0 375 374.999991" version="1.2">
<defs>
<clipPath id="clip1">
  <path d="M 116.71875 112.5 L 258.46875 112.5 L 258.46875 262.5 L 116.71875 262.5 Z M 116.71875 112.5 "/>
</clipPath>
</defs>
<g id="surface1">
<path style=" stroke:none;fill-rule:nonzero;fill:rgb(23.529053%,2.349854%,29.019165%);fill-opacity:1;" d="M 221.425781 175.117188 C 225.882812 175.117188 229.703125 179.25 229.703125 183.386719 C 230.023438 187.519531 225.882812 191.652344 221.425781 191.652344 C 216.96875 191.652344 213.148438 187.835938 213.148438 183.386719 C 213.148438 178.933594 216.96875 175.117188 221.425781 175.117188 "/>
<path style=" stroke:none;fill-rule:nonzero;fill:rgb(23.529053%,2.349854%,29.019165%);fill-opacity:1;" d="M 179.722656 183.070312 C 179.722656 178.617188 183.546875 174.800781 187.679688 174.800781 C 192.460938 174.800781 195.960938 178.296875 195.960938 183.070312 C 195.644531 188.152344 192.136719 191.652344 187.679688 191.652344 C 183.222656 191.652344 179.40625 187.835938 179.722656 183.070312 "/>
<path style=" stroke:none;fill-rule:nonzero;fill:rgb(23.529053%,2.349854%,29.019165%);fill-opacity:1;" d="M 153.621094 175.117188 C 158.078125 175.117188 161.898438 179.25 161.898438 183.386719 C 162.214844 187.519531 158.078125 191.652344 153.621094 191.652344 C 149.160156 191.652344 145.34375 187.835938 145.34375 183.386719 C 145.34375 178.933594 149.160156 175.117188 153.621094 175.117188 "/>
<g clip-path="url(#clip1)" clip-rule="nonzero">
<path style=" stroke:none;fill-rule:nonzero;fill:rgb(23.529053%,2.349854%,29.019165%);fill-opacity:1;" d="M 245.996094 241.65625 L 222.285156 218.976562 C 221.128906 217.859375 219.597656 217.238281 218.003906 217.238281 L 139.414062 217.238281 C 133.726562 217.238281 129.074219 212.613281 129.074219 206.910156 L 129.074219 149.371094 L 245.996094 149.371094 Z M 134.800781 125.097656 C 138.011719 125.097656 140.613281 127.703125 140.613281 130.902344 C 140.613281 134.082031 138.011719 136.6875 134.800781 136.6875 C 131.59375 136.6875 128.988281 134.082031 128.988281 130.902344 C 128.988281 127.703125 131.59375 125.097656 134.800781 125.097656 Z M 156.855469 125.097656 C 160.0625 125.097656 162.664062 127.703125 162.664062 130.902344 C 162.664062 134.082031 160.0625 136.6875 156.855469 136.6875 C 153.667969 136.6875 151.0625 134.082031 151.0625 130.902344 C 151.0625 127.703125 153.667969 125.097656 156.855469 125.097656 Z M 178.925781 125.097656 C 182.113281 125.097656 184.71875 127.703125 184.71875 130.902344 C 184.71875 134.082031 182.113281 136.6875 178.925781 136.6875 C 175.71875 136.6875 173.117188 134.082031 173.117188 130.902344 C 173.117188 127.703125 175.71875 125.097656 178.925781 125.097656 Z M 235.652344 112.597656 L 139.414062 112.597656 C 126.878906 112.597656 116.660156 122.78125 116.660156 135.324219 L 116.660156 206.910156 C 116.660156 219.449219 126.878906 229.632812 139.414062 229.632812 L 215.5 229.632812 L 247.898438 260.667969 C 249.074219 261.804688 250.625 262.402344 252.199219 262.402344 C 253.007812 262.402344 253.851562 262.234375 254.621094 261.90625 C 256.917969 260.9375 258.40625 258.683594 258.40625 256.203125 L 258.40625 135.324219 C 258.40625 122.78125 248.1875 112.597656 235.652344 112.597656 "/>
</g>
</g>
</svg>
