<svg width="26" height="26" viewBox="0 0 26 26" fill="none" xmlns="http://www.w3.org/2000/svg">
<path d="M13.4373 25.7951L13.8477 25.3831C14.1197 25.1099 14.1197 24.6671 13.8477 24.3939L3.48868 13.9908H25.3036C25.6882 13.9908 26 13.6776 26 13.2914V12.7086C26 12.3223 25.6882 12.0092 25.3036 12.0092H3.48868L13.8477 1.60602C14.1197 1.3329 14.1197 0.890068 13.8477 0.616896L13.4373 0.204836C13.1654 -0.0682793 12.7244 -0.0682793 12.4525 0.204836L0.203968 12.5054C-0.0679874 12.7786 -0.0679874 13.2214 0.203968 13.4946L12.4525 25.7951C12.7244 26.0683 13.1654 26.0683 13.4373 25.7951Z" fill="#3C064A"/>
</svg>
