<?xml version="1.0" encoding="UTF-8"?>
<svg xmlns="http://www.w3.org/2000/svg" xmlns:xlink="http://www.w3.org/1999/xlink" width="375pt" height="374.999991pt" viewBox="0 0 375 374.999991" version="1.2">
<defs>
<clipPath id="clip1">
  <path d="M 112.5 115.6875 L 262.5 115.6875 L 262.5 259.6875 L 112.5 259.6875 Z M 112.5 115.6875 "/>
</clipPath>
</defs>
<g id="surface1">
<g clip-path="url(#clip1)" clip-rule="nonzero">
<path style=" stroke:none;fill-rule:nonzero;fill:rgb(23.529053%,2.349854%,29.019165%);fill-opacity:1;" d="M 257.640625 143.699219 C 260.734375 140.597656 262.433594 136.480469 262.433594 132.089844 C 262.433594 123.042969 255.089844 115.6875 246.0625 115.6875 C 241.691406 115.6875 237.582031 117.398438 234.492188 120.496094 L 225.878906 129.128906 L 224.417969 130.59375 L 174.105469 134.800781 L 134.925781 128.253906 C 133.246094 127.933594 131.636719 129.105469 131.34375 130.796875 L 112.609375 237.230469 C 112.464844 238.050781 112.652344 238.894531 113.132812 239.578125 C 113.613281 240.261719 114.34375 240.722656 115.167969 240.859375 L 143.195312 245.542969 L 143.792969 256.726562 C 143.84375 257.582031 144.238281 258.386719 144.894531 258.941406 C 145.460938 259.425781 146.171875 259.6875 146.910156 259.6875 C 147.027344 259.6875 147.140625 259.679688 147.253906 259.667969 L 195.523438 254.289062 L 227.570312 259.644531 C 227.746094 259.675781 227.921875 259.6875 228.089844 259.6875 C 229.582031 259.6875 230.898438 258.617188 231.15625 257.09375 L 232.375 250.183594 L 259.65625 247.140625 C 261.304688 246.960938 262.523438 245.511719 262.429688 243.855469 L 256.921875 144.425781 Z M 238.910156 124.914062 C 240.824219 122.992188 243.363281 121.941406 246.074219 121.941406 C 251.652344 121.941406 256.191406 126.492188 256.191406 132.097656 C 256.191406 134.808594 255.136719 137.355469 253.222656 139.273438 L 246.816406 145.695312 L 232.503906 131.347656 Z M 198.523438 194.117188 C 197.503906 191.539062 195.8125 188.464844 192.820312 185.472656 C 189.839844 182.484375 186.78125 180.78125 184.210938 179.765625 L 228.089844 135.773438 L 242.402344 150.121094 Z M 180.457031 185.039062 C 182.472656 185.628906 185.457031 186.929688 188.410156 189.898438 C 191.371094 192.863281 192.675781 195.863281 193.265625 197.878906 L 176.179688 202.167969 Z M 217.578125 137.449219 L 213.640625 141.402344 L 199.175781 138.992188 Z M 149.851562 253.082031 L 149.5 246.597656 L 172.914062 250.507812 Z M 119.304688 235.203125 L 136.949219 134.933594 L 208.214844 146.839844 L 175.921875 179.214844 C 175.886719 179.253906 175.878906 179.316406 175.847656 179.355469 C 175.558594 179.671875 175.355469 180.042969 175.222656 180.46875 C 175.199219 180.542969 175.128906 180.59375 175.109375 180.667969 L 168.867188 205.710938 C 168.597656 206.78125 168.910156 207.910156 169.683594 208.6875 C 170.269531 209.273438 171.070312 209.601562 171.886719 209.601562 C 172.144531 209.601562 172.394531 209.570312 172.644531 209.5 L 197.621094 203.238281 C 197.699219 203.21875 197.746094 203.152344 197.816406 203.125 C 198.210938 202.996094 198.566406 202.796875 198.871094 202.53125 C 198.925781 202.480469 199.015625 202.476562 199.070312 202.417969 L 242.019531 159.355469 L 225.546875 252.949219 Z M 256.027344 241.25 L 233.503906 243.761719 L 249.714844 151.636719 L 250.996094 150.355469 Z M 256.027344 241.25 "/>
</g>
</g>
</svg>
